<svg width="716" height="712" viewBox="0 0 716 712" fill="none" xmlns="http://www.w3.org/2000/svg">
<path d="M688.889 711.111H22.2222C9.95556 711.111 0 701.156 0 688.889C0 676.622 9.95556 666.667 22.2222 666.667H688.889C701.155 666.667 711.111 676.622 711.111 688.889C711.111 701.156 701.155 711.111 688.889 711.111Z" fill="#40A3FE"/>
<path d="M215.333 545.2C215.333 587.733 180.844 622.222 138.311 622.222H81.2332C38.6998 622.222 4.21094 587.733 4.21094 545.2V321.467C4.22205 278.933 38.7109 244.444 81.2443 244.444H138.322C180.855 244.444 215.344 278.933 215.344 321.467L215.333 545.2ZM170.889 321.467C170.889 303.478 156.3 288.889 138.311 288.889H81.2332C63.2443 288.889 48.6554 303.478 48.6554 321.467V545.211C48.6665 563.2 63.2554 577.778 81.2443 577.778H138.322C156.311 577.778 170.9 563.189 170.9 545.2L170.889 321.467Z" fill="#40A3FE"/>
<path d="M470.889 545.2C470.889 587.733 436.4 622.222 393.867 622.222H336.789C294.255 622.222 259.767 587.733 259.767 545.2V199.244C259.767 156.711 294.255 122.222 336.789 122.222H393.867C436.4 122.222 470.889 156.711 470.889 199.244V545.2ZM426.444 199.244C426.444 181.256 411.855 166.667 393.867 166.667H336.789C318.8 166.667 304.211 181.256 304.211 199.244V545.211C304.211 563.2 318.8 577.789 336.789 577.789H393.867C411.855 577.789 426.444 563.2 426.444 545.211V199.244Z" fill="#40A3FE"/>
<path d="M715.333 545.2C715.333 587.733 680.844 622.222 638.311 622.222H581.233C538.7 622.222 504.211 587.733 504.211 545.2V77.0222C504.222 34.4889 538.711 0 581.244 0H638.322C680.855 0 715.344 34.4889 715.344 77.0222L715.333 545.2ZM670.889 77.0222C670.889 59.0333 656.311 44.4444 638.322 44.4444H581.244C563.255 44.4444 548.666 59.0333 548.666 77.0222V545.211C548.666 563.2 563.255 577.789 581.244 577.789H638.322C656.311 577.789 670.9 563.2 670.9 545.211L670.889 77.0222Z" fill="#40A3FE"/>
</svg>
