<svg width="800" height="800" viewBox="0 0 800 800" fill="none" xmlns="http://www.w3.org/2000/svg">
<path d="M731.222 755.556H64.5557C52.2891 755.556 42.3335 745.6 42.3335 733.333C42.3335 721.067 52.2891 711.111 64.5557 711.111H731.222C743.489 711.111 753.445 721.067 753.445 733.333C753.445 745.6 743.489 755.556 731.222 755.556Z" fill="black"/>
<path d="M257.667 589.644C257.667 632.178 223.178 666.667 180.644 666.667H123.567C81.0333 666.667 46.5444 632.178 46.5444 589.644V365.911C46.5555 323.378 81.0444 288.889 123.578 288.889H180.656C223.189 288.889 257.678 323.378 257.678 365.911L257.667 589.644ZM213.222 365.911C213.222 347.922 198.633 333.333 180.644 333.333H123.567C105.578 333.333 90.9889 347.922 90.9889 365.911V589.656C91 607.644 105.589 622.222 123.578 622.222H180.656C198.644 622.222 213.233 607.633 213.233 589.644L213.222 365.911Z" fill="black"/>
<path d="M513.222 589.644C513.222 632.178 478.733 666.667 436.2 666.667H379.122C336.589 666.667 302.1 632.178 302.1 589.644V243.689C302.1 201.156 336.589 166.667 379.122 166.667H436.2C478.733 166.667 513.222 201.156 513.222 243.689V589.644ZM468.778 243.689C468.778 225.7 454.189 211.111 436.2 211.111H379.122C361.133 211.111 346.545 225.7 346.545 243.689V589.656C346.545 607.644 361.133 622.233 379.122 622.233H436.2C454.189 622.233 468.778 607.644 468.778 589.656V243.689Z" fill="black"/>
<path d="M757.667 589.644C757.667 632.178 723.178 666.667 680.644 666.667H623.567C581.033 666.667 546.544 632.178 546.544 589.644V121.467C546.556 78.9333 581.044 44.4445 623.578 44.4445H680.656C723.189 44.4445 757.678 78.9333 757.678 121.467L757.667 589.644ZM713.222 121.467C713.222 103.478 698.644 88.8889 680.656 88.8889H623.578C605.589 88.8889 591 103.478 591 121.467V589.656C591 607.644 605.589 622.233 623.578 622.233H680.656C698.644 622.233 713.233 607.644 713.233 589.656L713.222 121.467Z" fill="black"/>
</svg>
